<svg xmlns="http://www.w3.org/2000/svg" viewBox="0 0 2048 2048" width="1024" height="1024" preserveAspectRatio="xMidYMid meet">

<!-- MASK to punch out inner shape -->
<defs>
  <mask id="cutout">
    <!-- everything visible -->
    <rect width="100%" height="100%" fill="white"/>
    <!-- this shape becomes transparent -->
    <path fill="black" d="M 304.752 879.114 L 305.228 879.488 C 307.087 883.431 306.195 1127.03 306.194 1149.65 C 293.689 1138.69 287.324 1133.29 276.773 1120.32 C 244.494 1081.01 246.79 1040.53 246.827 993.376 L 246.958 898.917 C 263.984 894.125 287.549 885.098 304.752 879.114 z"/>
  </mask>
</defs>

<!-- Logo with cutout applied -->
<g mask="url(#cutout)">
  <path fill="#0057ff" d="M 364.368 792.941 C 365.451 792.931 364.695 792.874 366.522 793.671 C 367.498 799.445 366.926 843.294 366.931 853.065 L 367.003 996.626 C 374.984 993.647 385.852 990.354 394.12 988.091 C 447.38 973.514 502.483 950.95 555.869 938.218 C 556.191 1010.54 564.862 1082.22 522.336 1144.81 C 490.683 1191.39 455.736 1212.21 408.085 1237.97 C 408.376 1214.87 408.381 1191.76 408.1 1168.66 C 460.601 1134.27 494.76 1099.82 495.282 1033.06 L 495.122 1020.59 C 452.735 1032.92 409.912 1047.95 366.935 1060.5 L 366.952 1256.24 C 329.048 1238.89 276.696 1207.76 247.323 1178.43 C 212.34 1143.94 190.919 1098.03 186.966 1049.07 C 185.094 1027.35 185.978 995.89 185.989 973.52 L 185.929 856 L 364.368 792.941 z"/>

  <path fill="#0057ff" d="M 407.991 804.341 C 421.318 807.993 442.428 815.763 455.865 820.335 C 489.453 831.578 522.836 843.424 555.998 855.868 L 556.039 894.498 L 543.923 898.135 C 527.677 903.062 511.371 907.785 495.007 912.304 L 495.001 899.524 C 473.817 891.347 429.142 875.88 407.936 870.327 L 407.991 804.341 z"/>
</g>

<!-- Brand Name -->
<text 
  x="750" 
  y="1024" 
  font-family="DM Sans, system-ui, -apple-system, Segoe UI, Roboto, Arial, sans-serif"
  font-size="260"
  font-weight="800"
  fill="#000000"
  dominant-baseline="middle">
  FairGuard
</text>

</svg>